<svg width="30" height="33" viewBox="0 0 30 33" fill="none" xmlns="http://www.w3.org/2000/svg">
<path d="M26.7857 2.0625H3.21429C1.43973 2.0625 0 3.44824 0 5.15625V27.8438C0 29.5518 1.43973 30.9375 3.21429 30.9375H26.7857C28.5603 30.9375 30 29.5518 30 27.8438V5.15625C30 3.44824 28.5603 2.0625 26.7857 2.0625ZM18.5692 26.7932C18.0067 26.8898 17.7991 26.5547 17.7991 26.2775C17.7991 25.9295 17.8125 24.1506 17.8125 22.7133C17.8125 21.7078 17.4643 21.0697 17.0558 20.7346C19.5335 20.4703 22.1451 20.1416 22.1451 16.023C22.1451 14.85 21.7098 14.2635 21 13.5094C21.1138 13.2322 21.4955 12.0914 20.8862 10.609C19.9554 10.3318 17.8259 11.7627 17.8259 11.7627C16.942 11.5242 15.9844 11.4018 15.0402 11.4018C14.096 11.4018 13.1384 11.5242 12.2545 11.7627C12.2545 11.7627 10.125 10.3318 9.1942 10.609C8.58482 12.085 8.95982 13.2258 9.08036 13.5094C8.37054 14.2635 8.03571 14.85 8.03571 16.023C8.03571 20.1223 10.5335 20.4703 13.0112 20.7346C12.6897 21.0117 12.4018 21.4887 12.3013 22.1719C11.6652 22.449 10.0379 22.926 9.06696 21.276C8.45759 20.2576 7.35938 20.1738 7.35938 20.1738C6.27455 20.1609 7.28571 20.8313 7.28571 20.8313C8.00893 21.1535 8.51786 22.391 8.51786 22.391C9.16741 24.3053 12.2746 23.6607 12.2746 23.6607C12.2746 24.5566 12.2879 26.0133 12.2879 26.2775C12.2879 26.5547 12.0871 26.8898 11.5179 26.7932C7.09821 25.3688 4.00446 21.3211 4.00446 16.5902C4.00446 10.6734 8.70536 6.18105 14.8527 6.18105C21 6.18105 25.9821 10.6734 25.9821 16.5902C25.9888 21.3211 22.9888 25.3752 18.5692 26.7932ZM12 22.8551C11.8728 22.8809 11.7522 22.8293 11.7388 22.7455C11.7254 22.6488 11.8125 22.565 11.9397 22.5393C12.067 22.5264 12.1875 22.5779 12.2009 22.6617C12.221 22.7455 12.1339 22.8293 12 22.8551ZM11.3638 22.7971C11.3638 22.8809 11.2634 22.9518 11.1295 22.9518C10.9821 22.9646 10.8817 22.8938 10.8817 22.7971C10.8817 22.7133 10.9821 22.6424 11.1161 22.6424C11.2433 22.6295 11.3638 22.7004 11.3638 22.7971ZM10.4464 22.7262C10.4196 22.81 10.2857 22.8486 10.1719 22.81C10.0446 22.7842 9.95759 22.6875 9.98438 22.6037C10.0112 22.5199 10.1451 22.4813 10.2589 22.507C10.3929 22.5457 10.4799 22.6424 10.4464 22.7262ZM9.62277 22.3781C9.5625 22.449 9.43527 22.4361 9.33482 22.3395C9.23437 22.2557 9.20759 22.1332 9.27455 22.0752C9.33482 22.0043 9.46205 22.0172 9.5625 22.1139C9.64955 22.1977 9.68303 22.3266 9.62277 22.3781ZM9.01339 21.7916C8.95312 21.8303 8.83928 21.7916 8.76562 21.6949C8.69196 21.5982 8.69196 21.4887 8.76562 21.4436C8.83928 21.3855 8.95312 21.4307 9.01339 21.5273C9.08705 21.624 9.08705 21.74 9.01339 21.7916ZM8.57812 21.1664C8.51786 21.2244 8.41741 21.1922 8.34375 21.1277C8.27009 21.0439 8.2567 20.9473 8.31696 20.9021C8.37723 20.8441 8.47768 20.8764 8.55134 20.9408C8.625 21.0246 8.63839 21.1213 8.57812 21.1664ZM8.12946 20.6895C8.10268 20.7475 8.01562 20.7604 7.94196 20.7152C7.85491 20.6766 7.81473 20.6057 7.84152 20.5477C7.8683 20.509 7.94196 20.4896 8.02902 20.5219C8.11607 20.567 8.15625 20.6379 8.12946 20.6895Z" fill="black"/>
</svg>
